<?xml version="1.0" encoding="UTF-8" standalone="no"?>
<svg
   viewBox="-14 -18 28 36"
   width="28pt"
   height="36pt"
   version="1.1"
   xmlns="http://www.w3.org/2000/svg"
   xmlns:svg="http://www.w3.org/2000/svg">
  <path
     id="note_go"
     d="m -3.9375,-5.1379111 q 0.5625,0.5097656 0.984375,0.5625 2.7070313,-0.2109375 4.992188,-0.6328125 l 0.421875,-0.3515625 q 1.335937,0.3164062 1.335937,0.6328125 0,0.2460937 -0.492187,0.28125 -2.144532,0.1054687 -4.007813,0.3515625 1.125,0.7734375 1.125,1.125 0,0.1054687 -0.28125,0.421875 -0.3867187,1.0195318 -0.9140625,2.25000094 1.7226563,-0.2460937 2.6718755,-0.421875 L 2.390625,-1.1300977 q 1.125,0.63281254 1.125,0.84374998 0,0.21093786 -0.28125,0.56249962 Q 2.988281,2.1745894 2.8125,4.3542764 3.832031,4.2839664 4.5,4.2839664 l 0.5625,-0.210938 q 1.757813,0.457031 1.757813,0.773438 0,0.28125 -0.351563,0.28125 -1.880859,-0.210938 -3.09375,-0.210938 -4.359375,0 -8.859375,0.84375 l -0.7734375,0.210935 Q -6.7675781,5.9011514 -7.59375,4.9870894 l 0.140625,-0.140625 q 0.421875,0.210937 0.7734375,0.351562 1.3359375,-0.140625 2.8125,-0.28125 1.1601562,-2.285156 2.109375,-4.71093644 -0.7734375,0.10546792 -1.4765625,0.2812498 l -0.5625,0.1406249 Q -4.21875,0.55740172 -4.8515625,-0.35665966 l 0.140625,-0.070313 q 0.4921875,0.28124986 0.84375,0.3515628 1.265625,-0.17578188 2.3203125,-0.2812498 0.5273437,-1.30078214 0.9140625,-2.95312644 -0.140625,-0.5273438 -0.5625,-0.9140625 -0.6328125,0.1054687 -1.1953125,0.2109375 l -0.6328125,0.2109375 q -0.5625,-0.28125 -1.0546875,-1.265625 z m 6.117188,9.4921875 q 0.140625,-2.109375 0.210937,-4.57031116 l -0.351562,-0.2109379 q -1.5117192,0.2109379 -3.023438,0.4921877 -1.0546875,2.49609236 -2.3203125,4.78124936 2.8476563,-0.316407 5.4843755,-0.492188 z" />
</svg>
